# xmcd
#
# Track frame offsets:
#	150
#	7443
#	34112
#	39016
#	60688
#	76015
#	92210
#	119869
#	133036
#	155847
#	169846
#	191545
#
# Disc length: 2744 seconds
#
# Revision: 0
# Processed by: cddbd v1.5.2PL0 Copyright (c) Steve Scherf et al.
# Submitted via: EZCDAudioConverter 1.3.4.1
#
DISCID=a20ab60c
DTITLE=Pye Corner Audio - Black Mill Tapes 3/3
DYEAR=2013
DGENRE=
TTITLE0=Transmission Five: The Old Place
TTITLE1=Dystopian Vector Part One
TTITLE2=Transmission Thirteen: Line Of Sight
TTITLE3=Electronic Rhythm Number Nine
TTITLE4=Theme Number Seven
TTITLE5=Electronic Rhythm Number Two
TTITLE6=Electronic Rhythm Number Twelve
TTITLE7=Transmission Nine: Black Light
TTITLE8=Void Bound
TTITLE9=Dystopian Vector Part Two
TTITLE10=Evil Surrounds
TTITLE11=Cont No Stop
EXTD=
EXTT0=
EXTT1=
EXTT2=
EXTT3=
EXTT4=
EXTT5=
EXTT6=
EXTT7=
EXTT8=
EXTT9=
EXTT10=
EXTT11=
PLAYORDER=
